<?xml version="1.0" encoding="UTF-8"?>
<svg id="Capa_1" xmlns="http://www.w3.org/2000/svg" version="1.1" viewBox="0 0 300 83">
  <!-- Generator: Adobe Illustrator 29.3.1, SVG Export Plug-In . SVG Version: 2.1.0 Build 151)  -->
  <defs>
    <style>
      .st0 {
        fill: #0b0b0b;
      }
    </style>
  </defs>
  <path class="st0" d="M.23,6.73c0-1.79.64-3.33,1.92-4.6C3.43.84,4.97.21,6.77.21s3.34.64,4.62,1.92c1.28,1.28,1.92,2.81,1.92,4.6v18.8c5.47-4.09,11.78-6.14,18.92-6.14,8.85,0,16.4,3.11,22.64,9.34,6.24,6.22,9.36,13.75,9.36,22.57s-3.12,16.35-9.36,22.57c-6.24,6.22-13.79,9.34-22.64,9.34s-16.4-3.11-22.64-9.34C3.43,67.73.31,60.31.23,51.62V6.73ZM18.76,64.73c3.72,3.71,8.21,5.56,13.47,5.56s9.74-1.84,13.44-5.53c3.7-3.69,5.55-8.15,5.55-13.4s-1.85-9.72-5.55-13.43c-3.7-3.71-8.18-5.56-13.44-5.56s-9.75,1.85-13.47,5.56c-3.16,3.16-4.98,6.86-5.45,11.13v2.43c0,.38-.02.77-.07,1.15.26,4.69,2.09,8.72,5.52,12.09Z"/>
  <path class="st0" d="M109.2,33.9c-2.35-1.07-4.94-1.6-7.76-1.6-5.26,0-9.75,1.84-13.47,5.53-3.72,3.69-5.58,8.15-5.58,13.4s1.86,9.72,5.58,13.43c3.72,3.71,8.21,5.56,13.47,5.56s9.68-1.83,13.4-5.5c.04-.04.09-.08.13-.13,1.24-1.24,2.76-1.85,4.55-1.85s3.34.63,4.62,1.89c1.28,1.26,1.92,2.78,1.92,4.57s-.64,3.33-1.92,4.6c-.04.04-.09.09-.13.13-6.2,6.18-13.72,9.27-22.58,9.27s-16.4-3.11-22.64-9.34c-6.24-6.22-9.36-13.75-9.36-22.57s3.12-16.35,9.36-22.57c6.24-6.22,13.79-9.34,22.64-9.34s16.38,3.09,22.58,9.27l-.07.06s.02.06.07.06c1.24,1.24,1.86,2.75,1.86,4.54s-.62,3.24-1.86,4.48l-18.34,18.16c-1.28,1.24-2.82,1.85-4.62,1.85s-3.4-.62-4.68-1.85c-1.24-1.28-1.86-2.83-1.86-4.67s.62-3.32,1.86-4.6l12.83-12.79Z"/>
  <path class="st0" d="M283.36,33.9c-2.35-1.07-4.94-1.6-7.76-1.6-5.26,0-9.75,1.84-13.47,5.53-3.72,3.69-5.58,8.15-5.58,13.4s1.86,9.72,5.58,13.43c3.72,3.71,8.21,5.56,13.47,5.56s9.68-1.83,13.4-5.5c.04-.04.09-.08.13-.13,1.24-1.24,2.76-1.85,4.55-1.85s3.34.63,4.62,1.89c1.28,1.26,1.92,2.78,1.92,4.57s-.64,3.33-1.92,4.6c-.04.04-.09.09-.13.13-6.2,6.18-13.72,9.27-22.58,9.27s-16.4-3.11-22.64-9.34c-6.24-6.22-9.36-13.75-9.36-22.57s3.12-16.35,9.36-22.57c6.24-6.22,13.79-9.34,22.64-9.34s16.38,3.09,22.58,9.27l-.07.06s.02.06.07.06c1.24,1.24,1.86,2.75,1.86,4.54s-.62,3.24-1.86,4.48l-18.34,18.16c-1.28,1.24-2.82,1.85-4.62,1.85s-3.4-.62-4.68-1.85c-1.24-1.28-1.86-2.83-1.86-4.67s.62-3.32,1.86-4.6l12.83-12.79Z"/>
  <path class="st0" d="M186.75,19.26c1.8,0,3.31.62,4.55,1.85.43.43.77.87,1.03,1.34h.06l20.01,39.97,20.01-39.97.06.06c.3-.51.66-.98,1.09-1.41,1.24-1.24,2.74-1.85,4.49-1.85s3.31.63,4.55,1.89c1.24,1.26,1.86,2.76,1.86,4.51,0,1.41-.41,2.64-1.22,3.71l-24.82,49.68c-.3.85-.79,1.6-1.47,2.24-1.24,1.28-2.76,1.92-4.55,1.92s-3.25-.64-4.49-1.92c-.68-.64-1.18-1.36-1.47-2.17l-19.69-39.33-19.63,39.26c-.3.85-.79,1.6-1.47,2.24-1.24,1.28-2.76,1.92-4.55,1.92s-3.25-.64-4.49-1.92c-.68-.64-1.18-1.36-1.47-2.17l-24.95-49.81c-.77-1.07-1.16-2.28-1.16-3.64,0-1.75.63-3.25,1.89-4.51,1.26-1.26,2.77-1.89,4.52-1.89s3.31.62,4.55,1.85c.43.43.77.87,1.03,1.34h.07l20.01,39.97,20.01-39.97.06.06c.3-.51.66-.98,1.09-1.41,1.24-1.24,2.74-1.85,4.49-1.85Z"/>
</svg>